<mxfile host="app.diagrams.net" agent="Mozilla/5.0 (Windows NT 10.0; Win64; x64) AppleWebKit/537.36 (KHTML, like Gecko) Chrome/121.0.0.0 Safari/537.36" version="26.1.1">
  <diagram name="第 1 页" id="rYjbNoSbnhnHZ-t1eCu7">
    <mxGraphModel dx="778" dy="419" grid="0" gridSize="10" guides="1" tooltips="1" connect="1" arrows="1" fold="1" page="1" pageScale="1" pageWidth="827" pageHeight="1169" math="0" shadow="0">
      <root>
        <mxCell id="0" />
        <mxCell id="1" parent="0" />
        <mxCell id="LcKzk_0sBiJOqu5ey-3Q-1" value="" style="rounded=0;html=1;jettySize=auto;orthogonalLoop=1;fontSize=11;endArrow=block;endFill=0;endSize=8;strokeWidth=1;shadow=0;labelBackgroundColor=none;edgeStyle=orthogonalEdgeStyle;entryX=0.5;entryY=0;entryDx=0;entryDy=0;" edge="1" parent="1" source="LcKzk_0sBiJOqu5ey-3Q-5" target="LcKzk_0sBiJOqu5ey-3Q-8">
          <mxGeometry x="-0.403" relative="1" as="geometry">
            <mxPoint as="offset" />
            <mxPoint x="203" y="413" as="targetPoint" />
          </mxGeometry>
        </mxCell>
        <mxCell id="LcKzk_0sBiJOqu5ey-3Q-2" value="&lt;b&gt;Yes&lt;/b&gt;" style="edgeLabel;html=1;align=center;verticalAlign=middle;resizable=0;points=[];" vertex="1" connectable="0" parent="LcKzk_0sBiJOqu5ey-3Q-1">
          <mxGeometry x="-0.2159" y="-1" relative="1" as="geometry">
            <mxPoint as="offset" />
          </mxGeometry>
        </mxCell>
        <mxCell id="LcKzk_0sBiJOqu5ey-3Q-3" value="" style="edgeStyle=orthogonalEdgeStyle;rounded=0;html=1;jettySize=auto;orthogonalLoop=1;fontSize=11;endArrow=block;endFill=0;endSize=8;strokeWidth=1;shadow=0;labelBackgroundColor=none;entryX=1;entryY=0.5;entryDx=0;entryDy=0;" edge="1" parent="1" source="LcKzk_0sBiJOqu5ey-3Q-5" target="LcKzk_0sBiJOqu5ey-3Q-6">
          <mxGeometry y="10" relative="1" as="geometry">
            <mxPoint as="offset" />
            <mxPoint x="380" y="230" as="targetPoint" />
          </mxGeometry>
        </mxCell>
        <mxCell id="LcKzk_0sBiJOqu5ey-3Q-4" value="&lt;b&gt;No&lt;/b&gt;" style="edgeLabel;html=1;align=center;verticalAlign=middle;resizable=0;points=[];" vertex="1" connectable="0" parent="LcKzk_0sBiJOqu5ey-3Q-3">
          <mxGeometry x="0.4361" relative="1" as="geometry">
            <mxPoint y="-6" as="offset" />
          </mxGeometry>
        </mxCell>
        <mxCell id="LcKzk_0sBiJOqu5ey-3Q-5" value="&lt;b&gt;USART Ready to Transmit?&lt;/b&gt;" style="rhombus;whiteSpace=wrap;html=1;shadow=0;fontFamily=Helvetica;fontSize=12;align=center;strokeWidth=1;spacing=6;spacingTop=-4;" vertex="1" parent="1">
          <mxGeometry x="136.88" y="258" width="140" height="100" as="geometry" />
        </mxCell>
        <mxCell id="LcKzk_0sBiJOqu5ey-3Q-6" value="Add String to cbufTx:&lt;div&gt;&lt;b&gt;circular_buf_put()&lt;/b&gt;&lt;br&gt;&lt;/div&gt;" style="rounded=1;whiteSpace=wrap;html=1;fontSize=12;glass=0;strokeWidth=1;shadow=0;" vertex="1" parent="1">
          <mxGeometry x="140" y="164" width="120" height="40" as="geometry" />
        </mxCell>
        <mxCell id="LcKzk_0sBiJOqu5ey-3Q-7" value="Transmission Callback:&lt;br&gt;&lt;div&gt;&lt;b&gt;&lt;span style=&quot;background-color: transparent;&quot;&gt;usart_write_callback&lt;/span&gt;()&lt;/b&gt;&lt;br&gt;&lt;/div&gt;" style="rounded=1;whiteSpace=wrap;html=1;fontSize=12;glass=0;strokeWidth=1;shadow=0;" vertex="1" parent="1">
          <mxGeometry x="135" y="478" width="140" height="40" as="geometry" />
        </mxCell>
        <mxCell id="LcKzk_0sBiJOqu5ey-3Q-8" value="Transmit Character:&lt;div&gt;&lt;b&gt;usart_write_buffer_job()&lt;/b&gt;&lt;br&gt;&lt;/div&gt;" style="rounded=1;whiteSpace=wrap;html=1;fontSize=12;glass=0;strokeWidth=1;shadow=0;" vertex="1" parent="1">
          <mxGeometry x="133.75" y="400" width="146.25" height="40" as="geometry" />
        </mxCell>
        <mxCell id="LcKzk_0sBiJOqu5ey-3Q-9" value="" style="rounded=0;html=1;jettySize=auto;orthogonalLoop=1;fontSize=11;endArrow=block;endFill=0;endSize=8;strokeWidth=1;shadow=0;labelBackgroundColor=none;edgeStyle=orthogonalEdgeStyle;exitX=0.462;exitY=1.012;exitDx=0;exitDy=0;exitPerimeter=0;" edge="1" parent="1">
          <mxGeometry x="0.3333" y="20" relative="1" as="geometry">
            <mxPoint as="offset" />
            <mxPoint x="201.79999999999995" y="118.72000000000003" as="sourcePoint" />
            <mxPoint x="202" y="164" as="targetPoint" />
            <Array as="points">
              <mxPoint x="202" y="133" />
            </Array>
          </mxGeometry>
        </mxCell>
        <mxCell id="LcKzk_0sBiJOqu5ey-3Q-12" value="&lt;b&gt;Program Initialization&lt;/b&gt;" style="shape=parallelogram;perimeter=parallelogramPerimeter;whiteSpace=wrap;html=1;fixedSize=1;" vertex="1" parent="1">
          <mxGeometry x="132.5" y="64" width="150" height="60" as="geometry" />
        </mxCell>
        <mxCell id="LcKzk_0sBiJOqu5ey-3Q-13" value="&lt;b&gt;End of Program:&lt;/b&gt;&lt;div&gt;All characters are transmitted and displayed on the TeraTerm&lt;/div&gt;" style="shape=parallelogram;perimeter=parallelogramPerimeter;whiteSpace=wrap;html=1;fixedSize=1;" vertex="1" parent="1">
          <mxGeometry x="590" y="468" width="210" height="60" as="geometry" />
        </mxCell>
        <mxCell id="LcKzk_0sBiJOqu5ey-3Q-14" value="" style="rounded=0;html=1;jettySize=auto;orthogonalLoop=1;fontSize=11;endArrow=block;endFill=0;endSize=8;strokeWidth=1;shadow=0;labelBackgroundColor=none;edgeStyle=orthogonalEdgeStyle;exitX=1;exitY=0.5;exitDx=0;exitDy=0;" edge="1" parent="1" source="LcKzk_0sBiJOqu5ey-3Q-7">
          <mxGeometry x="0.3333" y="20" relative="1" as="geometry">
            <mxPoint as="offset" />
            <mxPoint x="250" y="550" as="sourcePoint" />
            <mxPoint x="340" y="498" as="targetPoint" />
            <Array as="points" />
          </mxGeometry>
        </mxCell>
        <mxCell id="LcKzk_0sBiJOqu5ey-3Q-18" value="&lt;b&gt;Remaining&amp;nbsp;characters in &lt;code style=&quot;&quot; data-end=&quot;1185&quot; data-start=&quot;1177&quot;&gt;cbufTx?&lt;/code&gt;&lt;/b&gt;" style="rhombus;whiteSpace=wrap;html=1;shadow=0;fontFamily=Helvetica;fontSize=12;align=center;strokeWidth=1;spacing=6;spacingTop=-4;" vertex="1" parent="1">
          <mxGeometry x="338" y="431" width="174" height="134" as="geometry" />
        </mxCell>
        <mxCell id="LcKzk_0sBiJOqu5ey-3Q-19" value="" style="rounded=0;html=1;jettySize=auto;orthogonalLoop=1;fontSize=11;endArrow=block;endFill=0;endSize=8;strokeWidth=1;shadow=0;labelBackgroundColor=none;edgeStyle=orthogonalEdgeStyle;" edge="1" parent="1">
          <mxGeometry x="0.3333" y="20" relative="1" as="geometry">
            <mxPoint as="offset" />
            <mxPoint x="206" y="440" as="sourcePoint" />
            <mxPoint x="206" y="478" as="targetPoint" />
            <Array as="points">
              <mxPoint x="206" y="451" />
            </Array>
          </mxGeometry>
        </mxCell>
        <mxCell id="LcKzk_0sBiJOqu5ey-3Q-23" value="" style="rounded=0;html=1;jettySize=auto;orthogonalLoop=1;fontSize=11;endArrow=block;endFill=0;endSize=8;strokeWidth=1;shadow=0;labelBackgroundColor=none;edgeStyle=orthogonalEdgeStyle;exitX=0.993;exitY=0.499;exitDx=0;exitDy=0;entryX=0;entryY=0.5;entryDx=0;entryDy=0;exitPerimeter=0;" edge="1" parent="1" source="LcKzk_0sBiJOqu5ey-3Q-18" target="LcKzk_0sBiJOqu5ey-3Q-13">
          <mxGeometry x="0.3333" y="20" relative="1" as="geometry">
            <mxPoint as="offset" />
            <mxPoint x="509" y="498" as="sourcePoint" />
            <mxPoint x="574" y="498" as="targetPoint" />
            <Array as="points" />
          </mxGeometry>
        </mxCell>
        <mxCell id="LcKzk_0sBiJOqu5ey-3Q-24" value="&lt;b&gt;NO&lt;/b&gt;" style="edgeLabel;html=1;align=center;verticalAlign=middle;resizable=0;points=[];" vertex="1" connectable="0" parent="LcKzk_0sBiJOqu5ey-3Q-23">
          <mxGeometry x="-0.0265" relative="1" as="geometry">
            <mxPoint as="offset" />
          </mxGeometry>
        </mxCell>
        <mxCell id="LcKzk_0sBiJOqu5ey-3Q-27" value="" style="rounded=0;html=1;jettySize=auto;orthogonalLoop=1;fontSize=11;endArrow=block;endFill=0;endSize=8;strokeWidth=1;shadow=0;labelBackgroundColor=none;edgeStyle=orthogonalEdgeStyle;exitX=0.5;exitY=0;exitDx=0;exitDy=0;" edge="1" parent="1" source="LcKzk_0sBiJOqu5ey-3Q-18">
          <mxGeometry x="0.3333" y="20" relative="1" as="geometry">
            <mxPoint as="offset" />
            <mxPoint x="417" y="308" as="sourcePoint" />
            <mxPoint x="277" y="308" as="targetPoint" />
            <Array as="points">
              <mxPoint x="425" y="308" />
            </Array>
          </mxGeometry>
        </mxCell>
        <mxCell id="LcKzk_0sBiJOqu5ey-3Q-28" value="&lt;b&gt;Yes&lt;/b&gt;" style="edgeLabel;html=1;align=center;verticalAlign=middle;resizable=0;points=[];" vertex="1" connectable="0" parent="LcKzk_0sBiJOqu5ey-3Q-27">
          <mxGeometry x="0.4268" y="-1" relative="1" as="geometry">
            <mxPoint as="offset" />
          </mxGeometry>
        </mxCell>
      </root>
    </mxGraphModel>
  </diagram>
</mxfile>
